<svg width="220" height="150" viewBox="0 0 220 150" fill="none" xmlns="http://www.w3.org/2000/svg">
<rect width="220" height="150" fill="white"/>
<path d="M61.3102 25.9206H55V35.0991H61.3102V25.9206Z" fill="#E7E7E7"/>
<path d="M69.4561 25.9206H63.1459V35.0991H69.4561V25.9206Z" fill="#E7E7E7"/>
<path d="M61.3102 41.983H55V51.1614H61.3102V41.983Z" fill="#E7E7E7"/>
<path d="M69.4561 41.983H63.1459V51.1614H69.4561V41.983Z" fill="#E7E7E7"/>
<path d="M61.3102 58.0453H55V67.2238H61.3102V58.0453Z" fill="#E7E7E7"/>
<path d="M69.4561 58.0453H63.1459V67.2238H69.4561V58.0453Z" fill="#E7E7E7"/>
<path d="M61.3102 74.1076H55V83.2861H61.3102V74.1076Z" fill="#E7E7E7"/>
<path d="M69.4561 74.1076H63.1459V83.2861H69.4561V74.1076Z" fill="#E7E7E7"/>
<path d="M61.3102 90.17H55V99.3484H61.3102V90.17Z" fill="#E7E7E7"/>
<path d="M69.4561 90.17H63.1459V99.3484H69.4561V90.17Z" fill="#E7E7E7"/>
<path d="M85.3102 25.9206H79V35.0991H85.3102V25.9206Z" fill="#E7E7E7"/>
<path d="M93.4561 25.9206H87.1459V35.0991H93.4561V25.9206Z" fill="#E7E7E7"/>
<path d="M85.3102 41.983H79V51.1614H85.3102V41.983Z" fill="#E7E7E7"/>
<path d="M93.4561 41.983H87.1459V51.1614H93.4561V41.983Z" fill="#E7E7E7"/>
<path d="M85.3102 58.0453H79V67.2238H85.3102V58.0453Z" fill="#E7E7E7"/>
<path d="M93.4561 58.0453H87.1459V67.2238H93.4561V58.0453Z" fill="#E7E7E7"/>
<path d="M85.3102 74.1076H79V83.2861H85.3102V74.1076Z" fill="#E7E7E7"/>
<path d="M93.4561 74.1076H87.1459V83.2861H93.4561V74.1076Z" fill="#E7E7E7"/>
<path d="M85.3102 90.17H79V99.3484H85.3102V90.17Z" fill="#E7E7E7"/>
<path d="M93.4561 90.17H87.1459V99.3484H93.4561V90.17Z" fill="#E7E7E7"/>
<path d="M109.31 25.9206H103V35.0991H109.31V25.9206Z" fill="#E7E7E7"/>
<path d="M117.456 25.9206H111.146V35.0991H117.456V25.9206Z" fill="#E7E7E7"/>
<path d="M109.31 41.983H103V51.1614H109.31V41.983Z" fill="#E7E7E7"/>
<path d="M117.456 41.983H111.146V51.1614H117.456V41.983Z" fill="#E7E7E7"/>
<path d="M109.31 58.0453H103V67.2238H109.31V58.0453Z" fill="#E7E7E7"/>
<path d="M117.456 58.0453H111.146V67.2238H117.456V58.0453Z" fill="#E7E7E7"/>
<path d="M109.31 74.1076H103V83.2861H109.31V74.1076Z" fill="#E7E7E7"/>
<path d="M117.456 74.1076H111.146V83.2861H117.456V74.1076Z" fill="#E7E7E7"/>
<path d="M109.31 90.17H103V99.3484H109.31V90.17Z" fill="#E7E7E7"/>
<path d="M117.456 90.17H111.146V99.3484H117.456V90.17Z" fill="#E7E7E7"/>
<path d="M133.31 26H127V35.1785H133.31V26Z" fill="#E7E7E7"/>
<path d="M141.456 26H135.146V35.1785H141.456V26Z" fill="#E7E7E7"/>
<path d="M133.31 42.0623H127V51.2408H133.31V42.0623Z" fill="#E7E7E7"/>
<path d="M141.456 42.0623H135.146V51.2408H141.456V42.0623Z" fill="#E7E7E7"/>
<path d="M133.31 58.1247H127V67.3031H133.31V58.1247Z" fill="#E7E7E7"/>
<path d="M141.456 58.1247H135.146V67.3031H141.456V58.1247Z" fill="#E7E7E7"/>
<path d="M133.31 74.187H127V83.3655H133.31V74.187Z" fill="#E7E7E7"/>
<path d="M141.456 74.187H135.146V83.3655H141.456V74.187Z" fill="#E7E7E7"/>
<path d="M133.31 90.2493H127V99.4278H133.31V90.2493Z" fill="#E7E7E7"/>
<path d="M141.456 90.2493H135.146V99.4278H141.456V90.2493Z" fill="#E7E7E7"/>
<path d="M157.31 26H151V35.1785H157.31V26Z" fill="#E7E7E7"/>
<path d="M165.456 26H159.146V35.1785H165.456V26Z" fill="#E7E7E7"/>
<path d="M157.31 42.0623H151V51.2408H157.31V42.0623Z" fill="#E7E7E7"/>
<path d="M165.456 42.0623H159.146V51.2408H165.456V42.0623Z" fill="#E7E7E7"/>
<path d="M157.31 58.1247H151V67.3031H157.31V58.1247Z" fill="#E7E7E7"/>
<path d="M165.456 58.1247H159.146V67.3031H165.456V58.1247Z" fill="#E7E7E7"/>
<path d="M157.31 74.187H151V83.3655H157.31V74.187Z" fill="#E7E7E7"/>
<path d="M165.456 74.187H159.146V83.3655H165.456V74.187Z" fill="#E7E7E7"/>
<path d="M157.31 90.2493H151V99.4278H157.31V90.2493Z" fill="#E7E7E7"/>
<path d="M165.456 90.2493H159.146V99.4278H165.456V90.2493Z" fill="#E7E7E7"/>
<path d="M47.3102 112H41V121.178H47.3102V112Z" fill="#E7E7E7"/>
<path d="M55.4561 112H49.1459V121.178H55.4561V112Z" fill="#E7E7E7"/>
<path d="M67.9618 112H61.6516V121.178H67.9618V112Z" fill="#E7E7E7"/>
<path d="M76.1076 112H69.7974V121.178H76.1076V112Z" fill="#E7E7E7"/>
<path d="M88.6133 112H82.3031V121.178H88.6133V112Z" fill="#E7E7E7"/>
<path d="M96.7592 112H90.449V121.178H96.7592V112Z" fill="#E7E7E7"/>
<path d="M109.265 112H102.955V121.178H109.265V112Z" fill="#E7E7E7"/>
<path d="M117.411 112H111.101V121.178H117.411V112Z" fill="#E7E7E7"/>
<path d="M130.31 112H124V121.178H130.31V112Z" fill="#E7E7E7"/>
<path d="M138.456 112H132.146V121.178H138.456V112Z" fill="#E7E7E7"/>
<path d="M150.962 112H144.652V121.178H150.962V112Z" fill="#E7E7E7"/>
<path d="M159.108 112H152.797V121.178H159.108V112Z" fill="#E7E7E7"/>
<path d="M171.613 112H165.303V121.178H171.613V112Z" fill="#E7E7E7"/>
<path d="M179.759 112H173.449V121.178H179.759V112Z" fill="#E7E7E7"/>
</svg>
