<?xml version="1.0" encoding="utf-8"?>
<!-- Generator: Adobe Illustrator 17.1.0, SVG Export Plug-In . SVG Version: 6.00 Build 0)  -->
<!DOCTYPE svg PUBLIC "-//W3C//DTD SVG 1.1//EN" "http://www.w3.org/Graphics/SVG/1.1/DTD/svg11.dtd">
<svg version="1.1" id="Layer_1" xmlns="http://www.w3.org/2000/svg" xmlns:xlink="http://www.w3.org/1999/xlink" x="0px" y="0px"
	 width="220px" height="150px" viewBox="0 0 220 150" enable-background="new 0 0 220 150" xml:space="preserve">
<rect x="0.6" y="0.1" fill="#FFFFFF" width="219.5" height="149.8"/>
<rect x="44.2" y="116.4" fill="#e7e7e7" width="5.5" height="7"/>
<rect x="55.7" y="116.4" fill="#e7e7e7" width="5.5" height="7"/>
<rect x="67.1" y="116.4" fill="#e7e7e7" width="5.5" height="7"/>
<rect x="78.5" y="116.4" fill="#e7e7e7" width="5.5" height="7"/>
<rect x="89.9" y="116.4" fill="#e7e7e7" width="5.5" height="7"/>
<rect x="101.3" y="116.4" fill="#e7e7e7" width="5.5" height="7"/>
<rect x="112.7" y="116.4" fill="#e7e7e7" width="5.5" height="7"/>
<rect x="124.1" y="116.4" fill="#e7e7e7" width="5.5" height="7"/>
<rect x="135.5" y="116.4" fill="#e7e7e7" width="5.5" height="7"/>
<rect x="146.9" y="116.4" fill="#e7e7e7" width="5.5" height="7"/>
<rect x="158.3" y="116.4" fill="#e7e7e7" width="5.5" height="7"/>
<rect x="169.7" y="116.4" fill="#e7e7e7" width="5.5" height="7"/>
<rect x="49.6" y="25.8" fill="#e7e7e7" width="4.8" height="6.1"/>
<rect x="57.9" y="25.8" fill="#e7e7e7" width="4.8" height="6.1"/>
<rect x="66.2" y="25.8" fill="#e7e7e7" width="4.8" height="6.1"/>
<rect x="74.5" y="25.8" fill="#e7e7e7" width="4.8" height="6.1"/>
<rect x="82.7" y="25.8" fill="#e7e7e7" width="4.8" height="6.1"/>
<rect x="91" y="25.8" fill="#e7e7e7" width="4.8" height="6.1"/>
<rect x="99.3" y="25.8" fill="#e7e7e7" width="4.8" height="6.1"/>
<rect x="107.6" y="25.8" fill="#e7e7e7" width="4.8" height="6.1"/>
<rect x="115.9" y="25.8" fill="#e7e7e7" width="4.8" height="6.1"/>
<rect x="124.2" y="25.8" fill="#e7e7e7" width="4.8" height="6.1"/>
<rect x="132.5" y="25.8" fill="#e7e7e7" width="4.8" height="6.1"/>
<rect x="140.8" y="25.8" fill="#e7e7e7" width="4.8" height="6.1"/>
<rect x="149.1" y="25.8" fill="#e7e7e7" width="4.8" height="6.1"/>
<rect x="157.4" y="25.8" fill="#e7e7e7" width="4.8" height="6.1"/>
<rect x="165.7" y="25.8" fill="#e7e7e7" width="4.8" height="6.1"/>
<rect x="49.6" y="36.8" fill="#e7e7e7" width="4.8" height="6.1"/>
<rect x="57.9" y="36.8" fill="#e7e7e7" width="4.8" height="6.1"/>
<rect x="66.2" y="36.8" fill="#e7e7e7" width="4.8" height="6.1"/>
<rect x="74.5" y="36.8" fill="#e7e7e7" width="4.8" height="6.1"/>
<rect x="82.7" y="36.8" fill="#e7e7e7" width="4.8" height="6.1"/>
<rect x="91" y="36.8" fill="#e7e7e7" width="4.8" height="6.1"/>
<rect x="99.3" y="36.8" fill="#e7e7e7" width="4.8" height="6.1"/>
<rect x="107.6" y="36.8" fill="#e7e7e7" width="4.8" height="6.1"/>
<rect x="115.9" y="36.8" fill="#e7e7e7" width="4.8" height="6.1"/>
<rect x="124.2" y="36.8" fill="#e7e7e7" width="4.8" height="6.1"/>
<rect x="132.5" y="36.8" fill="#e7e7e7" width="4.8" height="6.1"/>
<rect x="140.8" y="36.8" fill="#e7e7e7" width="4.8" height="6.1"/>
<rect x="149.1" y="36.8" fill="#e7e7e7" width="4.8" height="6.1"/>
<rect x="157.4" y="36.8" fill="#e7e7e7" width="4.8" height="6.1"/>
<rect x="165.7" y="36.8" fill="#e7e7e7" width="4.8" height="6.1"/>
<rect x="49.6" y="47.8" fill="#e7e7e7" width="4.8" height="6.1"/>
<rect x="57.9" y="47.8" fill="#e7e7e7" width="4.8" height="6.1"/>
<rect x="66.2" y="47.8" fill="#e7e7e7" width="4.8" height="6.1"/>
<rect x="74.5" y="47.8" fill="#e7e7e7" width="4.8" height="6.1"/>
<rect x="82.7" y="47.8" fill="#e7e7e7" width="4.8" height="6.1"/>
<rect x="91" y="47.8" fill="#e7e7e7" width="4.8" height="6.1"/>
<rect x="99.3" y="47.8" fill="#e7e7e7" width="4.8" height="6.1"/>
<rect x="107.6" y="47.8" fill="#e7e7e7" width="4.8" height="6.1"/>
<rect x="115.9" y="47.8" fill="#e7e7e7" width="4.8" height="6.1"/>
<rect x="124.2" y="47.8" fill="#e7e7e7" width="4.8" height="6.1"/>
<rect x="132.5" y="47.8" fill="#e7e7e7" width="4.8" height="6.1"/>
<rect x="140.8" y="47.8" fill="#e7e7e7" width="4.8" height="6.1"/>
<rect x="149.1" y="47.8" fill="#e7e7e7" width="4.8" height="6.1"/>
<rect x="157.4" y="47.8" fill="#e7e7e7" width="4.8" height="6.1"/>
<rect x="165.7" y="47.8" fill="#e7e7e7" width="4.8" height="6.1"/>
<rect x="49.6" y="58.8" fill="#e7e7e7" width="4.8" height="6.1"/>
<rect x="57.9" y="58.8" fill="#e7e7e7" width="4.8" height="6.1"/>
<rect x="66.2" y="58.8" fill="#e7e7e7" width="4.8" height="6.1"/>
<rect x="74.5" y="58.8" fill="#e7e7e7" width="4.8" height="6.1"/>
<rect x="82.7" y="58.8" fill="#e7e7e7" width="4.8" height="6.1"/>
<rect x="91" y="58.8" fill="#e7e7e7" width="4.8" height="6.1"/>
<rect x="99.3" y="58.8" fill="#e7e7e7" width="4.8" height="6.1"/>
<rect x="107.6" y="58.8" fill="#e7e7e7" width="4.8" height="6.1"/>
<rect x="115.9" y="58.8" fill="#e7e7e7" width="4.8" height="6.1"/>
<rect x="124.2" y="58.8" fill="#e7e7e7" width="4.8" height="6.1"/>
<rect x="132.5" y="58.8" fill="#e7e7e7" width="4.8" height="6.1"/>
<rect x="140.8" y="58.8" fill="#e7e7e7" width="4.8" height="6.1"/>
<rect x="149.1" y="58.8" fill="#e7e7e7" width="4.8" height="6.1"/>
<rect x="157.4" y="58.8" fill="#e7e7e7" width="4.8" height="6.1"/>
<rect x="165.7" y="58.8" fill="#e7e7e7" width="4.8" height="6.1"/>
<rect x="49.6" y="69.8" fill="#e7e7e7" width="4.8" height="6.1"/>
<rect x="57.9" y="69.8" fill="#e7e7e7" width="4.8" height="6.1"/>
<rect x="66.2" y="69.8" fill="#e7e7e7" width="4.8" height="6.1"/>
<rect x="74.5" y="69.8" fill="#e7e7e7" width="4.8" height="6.1"/>
<rect x="82.7" y="69.8" fill="#e7e7e7" width="4.8" height="6.1"/>
<rect x="91" y="69.8" fill="#e7e7e7" width="4.8" height="6.1"/>
<rect x="99.3" y="69.8" fill="#e7e7e7" width="4.8" height="6.1"/>
<rect x="107.6" y="69.8" fill="#e7e7e7" width="4.8" height="6.1"/>
<rect x="115.9" y="69.8" fill="#e7e7e7" width="4.8" height="6.1"/>
<rect x="124.2" y="69.8" fill="#e7e7e7" width="4.8" height="6.1"/>
<rect x="132.5" y="69.8" fill="#e7e7e7" width="4.8" height="6.1"/>
<rect x="140.8" y="69.8" fill="#e7e7e7" width="4.8" height="6.1"/>
<rect x="149.1" y="69.8" fill="#e7e7e7" width="4.8" height="6.1"/>
<rect x="157.4" y="69.8" fill="#e7e7e7" width="4.8" height="6.1"/>
<rect x="165.7" y="69.8" fill="#e7e7e7" width="4.8" height="6.1"/>
<rect x="49.6" y="80.8" fill="#e7e7e7" width="4.8" height="6.1"/>
<rect x="57.9" y="80.8" fill="#e7e7e7" width="4.8" height="6.1"/>
<rect x="66.2" y="80.8" fill="#e7e7e7" width="4.8" height="6.1"/>
<rect x="74.5" y="80.8" fill="#e7e7e7" width="4.8" height="6.1"/>
<rect x="82.7" y="80.8" fill="#e7e7e7" width="4.8" height="6.1"/>
<rect x="91" y="80.8" fill="#e7e7e7" width="4.8" height="6.1"/>
<rect x="99.3" y="80.8" fill="#e7e7e7" width="4.8" height="6.1"/>
<rect x="107.6" y="80.8" fill="#e7e7e7" width="4.8" height="6.1"/>
<rect x="115.9" y="80.8" fill="#e7e7e7" width="4.8" height="6.1"/>
<rect x="124.2" y="80.8" fill="#e7e7e7" width="4.8" height="6.1"/>
<rect x="132.5" y="80.8" fill="#e7e7e7" width="4.8" height="6.1"/>
<rect x="140.8" y="80.8" fill="#e7e7e7" width="4.8" height="6.1"/>
<rect x="149.1" y="80.8" fill="#e7e7e7" width="4.8" height="6.1"/>
<rect x="157.4" y="80.8" fill="#e7e7e7" width="4.8" height="6.1"/>
<rect x="165.7" y="80.8" fill="#e7e7e7" width="4.8" height="6.1"/>
<rect x="49.6" y="91.8" fill="#e7e7e7" width="4.8" height="6.1"/>
<rect x="57.9" y="91.8" fill="#e7e7e7" width="4.8" height="6.1"/>
<rect x="66.2" y="91.8" fill="#e7e7e7" width="4.8" height="6.1"/>
<rect x="74.5" y="91.8" fill="#e7e7e7" width="4.8" height="6.1"/>
<rect x="82.7" y="91.8" fill="#e7e7e7" width="4.8" height="6.1"/>
<rect x="91" y="91.8" fill="#e7e7e7" width="4.8" height="6.1"/>
<rect x="99.3" y="91.8" fill="#e7e7e7" width="4.8" height="6.1"/>
<rect x="107.6" y="91.8" fill="#e7e7e7" width="4.8" height="6.1"/>
<rect x="115.9" y="91.8" fill="#e7e7e7" width="4.8" height="6.1"/>
<rect x="124.2" y="91.8" fill="#e7e7e7" width="4.8" height="6.1"/>
<rect x="132.5" y="91.8" fill="#e7e7e7" width="4.8" height="6.1"/>
<rect x="140.8" y="91.8" fill="#e7e7e7" width="4.8" height="6.1"/>
<rect x="149.1" y="91.8" fill="#e7e7e7" width="4.8" height="6.1"/>
<rect x="157.4" y="91.8" fill="#e7e7e7" width="4.8" height="6.1"/>
<rect x="165.7" y="91.8" fill="#e7e7e7" width="4.8" height="6.1"/>
<rect x="49.6" y="102.8" fill="#e7e7e7" width="4.8" height="6.1"/>
<rect x="57.9" y="102.8" fill="#e7e7e7" width="4.8" height="6.1"/>
<rect x="66.2" y="102.8" fill="#e7e7e7" width="4.8" height="6.1"/>
<rect x="74.5" y="102.8" fill="#e7e7e7" width="4.8" height="6.1"/>
<rect x="82.7" y="102.8" fill="#e7e7e7" width="4.8" height="6.1"/>
<rect x="91" y="102.8" fill="#e7e7e7" width="4.8" height="6.1"/>
<rect x="99.3" y="102.8" fill="#e7e7e7" width="4.8" height="6.1"/>
<rect x="107.6" y="102.8" fill="#e7e7e7" width="4.8" height="6.1"/>
<rect x="115.9" y="102.8" fill="#e7e7e7" width="4.8" height="6.1"/>
<rect x="124.2" y="102.8" fill="#e7e7e7" width="4.8" height="6.1"/>
<rect x="132.5" y="102.8" fill="#e7e7e7" width="4.8" height="6.1"/>
<rect x="140.8" y="102.8" fill="#e7e7e7" width="4.8" height="6.1"/>
<rect x="149.1" y="102.8" fill="#e7e7e7" width="4.8" height="6.1"/>
<rect x="157.4" y="102.8" fill="#e7e7e7" width="4.8" height="6.1"/>
<rect x="165.7" y="102.8" fill="#e7e7e7" width="4.8" height="6.1"/>
</svg>
